<svg viewBox="0 0 493.8310546875 399.9884338378906" xmlns="http://www.w3.org/2000/svg"><g><g><g><g><g><line x1="51.5625" y1="376.988" x2="46.5625" y2="376.988" style="visibility: inherit;" fill="rgb(0, 0, 0)" stroke="rgb(204, 204, 204)" stroke-width="1px"></line><line x1="51.5625" y1="329.8645" x2="46.5625" y2="329.8645" style="visibility: inherit;" fill="rgb(0, 0, 0)" stroke="rgb(204, 204, 204)" stroke-width="1px"></line><line x1="51.5625" y1="282.741" x2="46.5625" y2="282.741" style="visibility: inherit;" fill="rgb(0, 0, 0)" stroke="rgb(204, 204, 204)" stroke-width="1px"></line><line x1="51.5625" y1="235.61749999999995" x2="46.5625" y2="235.61749999999995" style="visibility: inherit;" fill="rgb(0, 0, 0)" stroke="rgb(204, 204, 204)" stroke-width="1px"></line><line x1="51.5625" y1="188.49399999999997" x2="46.5625" y2="188.49399999999997" style="visibility: inherit;" fill="rgb(0, 0, 0)" stroke="rgb(204, 204, 204)" stroke-width="1px"></line><line x1="51.5625" y1="141.3705" x2="46.5625" y2="141.3705" style="visibility: inherit;" fill="rgb(0, 0, 0)" stroke="rgb(204, 204, 204)" stroke-width="1px"></line><line x1="51.5625" y1="94.247" x2="46.5625" y2="94.247" style="visibility: inherit;" fill="rgb(0, 0, 0)" stroke="rgb(204, 204, 204)" stroke-width="1px"></line><line x1="51.5625" y1="47.1235" x2="46.5625" y2="47.1235" style="visibility: inherit;" fill="rgb(0, 0, 0)" stroke="rgb(204, 204, 204)" stroke-width="1px"></line><line x1="51.5625" y1="0" x2="46.5625" y2="0" style="visibility: inherit;" fill="rgb(0, 0, 0)" stroke="rgb(204, 204, 204)" stroke-width="1px"></line></g><g transform="translate(41.5625, 0)"><text x="0" y="376.988" dx="0em" dy="0.3em" style="text-anchor: end; visibility: hidden; font-family: Roboto, sans-serif; font-size: 12px; font-weight: 200;" fill="rgb(255, 255, 255)" stroke="none" stroke-width="1px">-0.2</text><text x="0" y="329.8645" dx="0em" dy="0.3em" style="text-anchor: end; visibility: inherit; font-family: Roboto, sans-serif; font-size: 12px; font-weight: 200;" fill="rgb(255, 255, 255)" stroke="none" stroke-width="1px">0</text><text x="0" y="282.741" dx="0em" dy="0.3em" style="text-anchor: end; visibility: inherit; font-family: Roboto, sans-serif; font-size: 12px; font-weight: 200;" fill="rgb(255, 255, 255)" stroke="none" stroke-width="1px">0.2</text><text x="0" y="235.61749999999995" dx="0em" dy="0.3em" style="text-anchor: end; visibility: inherit; font-family: Roboto, sans-serif; font-size: 12px; font-weight: 200;" fill="rgb(255, 255, 255)" stroke="none" stroke-width="1px">0.4</text><text x="0" y="188.49399999999997" dx="0em" dy="0.3em" style="text-anchor: end; visibility: inherit; font-family: Roboto, sans-serif; font-size: 12px; font-weight: 200;" fill="rgb(255, 255, 255)" stroke="none" stroke-width="1px">0.6</text><text x="0" y="141.3705" dx="0em" dy="0.3em" style="text-anchor: end; visibility: inherit; font-family: Roboto, sans-serif; font-size: 12px; font-weight: 200;" fill="rgb(255, 255, 255)" stroke="none" stroke-width="1px">0.8</text><text x="0" y="94.247" dx="0em" dy="0.3em" style="text-anchor: end; visibility: inherit; font-family: Roboto, sans-serif; font-size: 12px; font-weight: 200;" fill="rgb(255, 255, 255)" stroke="none" stroke-width="1px">1</text><text x="0" y="47.1235" dx="0em" dy="0.3em" style="text-anchor: end; visibility: inherit; font-family: Roboto, sans-serif; font-size: 12px; font-weight: 200;" fill="rgb(255, 255, 255)" stroke="none" stroke-width="1px">1.2</text><text x="0" y="0" dx="0em" dy="0.3em" style="text-anchor: end; visibility: hidden; font-family: Roboto, sans-serif; font-size: 12px; font-weight: 200;" fill="rgb(255, 255, 255)" stroke="none" stroke-width="1px">1.4</text></g><line x1="51.5625" y1="0" x2="51.5625" y2="376.988" fill="rgb(0, 0, 0)" stroke="rgb(204, 204, 204)" stroke-width="1px"></line></g></g><g transform="translate(51, 0)" clip-path="url(#clip_0)"><clipPath id="clip_0"><rect width="442" height="376"></rect></clipPath><g><g><g><line x1="0" y1="0" x2="0" y2="376.988" fill="rgb(0, 0, 0)" stroke="rgb(189, 189, 189)" stroke-width="1px" opacity="0.25"></line><line x1="36.85570833333333" y1="0" x2="36.85570833333333" y2="376.988" fill="rgb(0, 0, 0)" stroke="rgb(189, 189, 189)" stroke-width="1px" opacity="0.25"></line><line x1="73.71141666666666" y1="0" x2="73.71141666666666" y2="376.988" fill="rgb(0, 0, 0)" stroke="rgb(189, 189, 189)" stroke-width="1px" opacity="0.25"></line><line x1="110.567125" y1="0" x2="110.567125" y2="376.988" fill="rgb(0, 0, 0)" stroke="rgb(189, 189, 189)" stroke-width="1px" opacity="0.25"></line><line x1="147.42283333333333" y1="0" x2="147.42283333333333" y2="376.988" fill="rgb(0, 0, 0)" stroke="rgb(189, 189, 189)" stroke-width="1px" opacity="0.25"></line><line x1="184.27854166666668" y1="0" x2="184.27854166666668" y2="376.988" fill="rgb(0, 0, 0)" stroke="rgb(189, 189, 189)" stroke-width="1px" opacity="0.25"></line><line x1="221.13425" y1="0" x2="221.13425" y2="376.988" fill="rgb(0, 0, 0)" stroke="rgb(189, 189, 189)" stroke-width="1px" opacity="0.25"></line><line x1="257.98995833333333" y1="0" x2="257.98995833333333" y2="376.988" fill="rgb(0, 0, 0)" stroke="rgb(189, 189, 189)" stroke-width="1px" opacity="0.25"></line><line x1="294.84566666666666" y1="0" x2="294.84566666666666" y2="376.988" fill="rgb(0, 0, 0)" stroke="rgb(189, 189, 189)" stroke-width="1px" opacity="0.25"></line><line x1="331.701375" y1="0" x2="331.701375" y2="376.988" fill="rgb(0, 0, 0)" stroke="rgb(189, 189, 189)" stroke-width="1px" opacity="0.25"></line><line x1="368.55708333333337" y1="0" x2="368.55708333333337" y2="376.988" fill="rgb(0, 0, 0)" stroke="rgb(189, 189, 189)" stroke-width="1px" opacity="0.25"></line><line x1="405.4127916666667" y1="0" x2="405.4127916666667" y2="376.988" fill="rgb(0, 0, 0)" stroke="rgb(189, 189, 189)" stroke-width="1px" opacity="0.25"></line><line x1="442.2685" y1="0" x2="442.2685" y2="376.988" fill="rgb(0, 0, 0)" stroke="rgb(189, 189, 189)" stroke-width="1px" opacity="0.25"></line></g><g><line x1="0" y1="376.988" x2="442.2685" y2="376.988" fill="rgb(0, 0, 0)" stroke="rgb(189, 189, 189)" stroke-width="1px" opacity="0.25"></line><line x1="0" y1="329.8645" x2="442.2685" y2="329.8645" fill="rgb(0, 0, 0)" stroke="rgb(189, 189, 189)" stroke-width="1px" opacity="0.25"></line><line x1="0" y1="282.741" x2="442.2685" y2="282.741" fill="rgb(0, 0, 0)" stroke="rgb(189, 189, 189)" stroke-width="1px" opacity="0.25"></line><line x1="0" y1="235.61749999999995" x2="442.2685" y2="235.61749999999995" fill="rgb(0, 0, 0)" stroke="rgb(189, 189, 189)" stroke-width="1px" opacity="0.25"></line><line x1="0" y1="188.49399999999997" x2="442.2685" y2="188.49399999999997" fill="rgb(0, 0, 0)" stroke="rgb(189, 189, 189)" stroke-width="1px" opacity="0.25"></line><line x1="0" y1="141.3705" x2="442.2685" y2="141.3705" fill="rgb(0, 0, 0)" stroke="rgb(189, 189, 189)" stroke-width="1px" opacity="0.25"></line><line x1="0" y1="94.247" x2="442.2685" y2="94.247" fill="rgb(0, 0, 0)" stroke="rgb(189, 189, 189)" stroke-width="1px" opacity="0.25"></line><line x1="0" y1="47.1235" x2="442.2685" y2="47.1235" fill="rgb(0, 0, 0)" stroke="rgb(189, 189, 189)" stroke-width="1px" opacity="0.25"></line><line x1="0" y1="0" x2="442.2685" y2="0" fill="rgb(0, 0, 0)" stroke="rgb(189, 189, 189)" stroke-width="1px" opacity="0.25"></line></g></g></g><g><g><line x1="0" y1="329.8645" x2="442.2685" y2="329.8645" fill="rgb(0, 0, 0)" stroke="rgb(153, 153, 153)" stroke-width="1.5px"></line></g></g><g><g><line x1="36.85570833333333" y1="0" x2="36.85570833333333" y2="376.988" fill="rgb(0, 0, 0)" stroke="rgb(153, 153, 153)" stroke-width="1.5px"></line></g></g><g><g><g><g><g><path stroke="rgb(0, 119, 187)" stroke-width="2px" d="M44.226850000000006,-52.030583804726604L47.912420833333336,45.26753154915571L51.59799166666667,176.07237779912353L55.2835625,212.20811926473678L58.96913333333333,259.4564315940142L62.65470416666667,286.19308407266436L66.340275,296.7028452176675L70.02584583333334,303.9020085875578L73.71141666666666,270.1837783522606L77.3969875,310.1335439162776L81.08255833333332,313.7769557272345L84.76812916666668,316.7401540013198L88.45370000000001,319.0682609031051L92.13927083333334,320.65171121161245L95.82484166666667,321.82959307384493L99.5104125,322.740909475198L103.19598333333334,323.5728502073726L106.88155416666667,324.2223681732668L110.567125,324.7644696344836L114.25269583333335,325.2242448914545L117.93826666666666,325.6205557761183L121.62383750000001,325.9679052457614L125.30940833333334,326.27737174106574L128.99497916666667,326.55200673761124L132.68055,326.80229005495363L136.36612083333335,327.0276092475052L140.05169166666667,327.22875055408383L143.7372625,327.41572134875975L147.42283333333333,327.5833352641137L151.10840416666667,327.7360121779777L154.793975,327.8765643808041L158.47954583333333,328.00680156043313L162.16511666666665,328.12500224225505L165.8506875,328.23369959426157L169.53625833333336,328.3335123159636L173.22182916666668,328.42751086414603L176.90740000000002,328.51477020678624L180.59297083333334,328.5965405799057L184.27854166666668,328.67171844037995L187.9641125,328.74260007515016L191.64968333333334,328.80811310098903L195.33525416666666,328.86984447830173L199.020825,328.92727622865397L202.70639583333335,328.9811628823767L206.3919666666667,329.03056684474217L210.0775375,329.07750961409L213.76310833333335,329.1221588394452L217.44867916666666,329.163696244349L221.13425,329.2027354264276L224.81982083333332,329.2386825372854L228.5053916666667,329.2730720372893L232.1909625,329.30496007778845L235.87653333333333,329.33485734097354L239.56210416666667,329.3633428084581L243.24767500000002,329.3894899670272L246.93324583333336,329.4138861917173L250.61881666666667,329.43753499031374L254.3043875,329.45925258844204L257.98995833333333,329.47994566779806L261.6755291666667,329.4992241536458L265.3611,329.5176464006245L269.04667083333334,329.53485972038925L272.7322416666667,329.5510868403751L276.4178125,329.56658650293383L280.10338333333334,329.58122668994406L283.7889541666667,329.5952561868537L287.474525,329.60852350060554L291.16009583333334,329.62131348642305L294.84566666666666,329.63339548974926L298.53123750000003,329.644732727642L302.21680833333335,329.6554981430173L305.90237916666666,329.6656270022858L309.58795,329.6752255261361L313.27352083333335,329.68420112633453L316.95909166666667,329.69289333878714L320.6446625,329.70103585060366L324.3302333333333,329.70874909094726L328.01580416666667,329.71607242113186L331.701375,329.7229789876896L335.38694583333336,329.7295297389408L339.07251666666673,329.7357630487379L342.75808750000004,329.7417521263819L346.44365833333336,329.7474730807897L350.1292291666667,329.7537445998623L353.81480000000005,329.75935888099474L357.50037083333336,329.76422077815363L361.1859416666667,329.7688381345778L364.8715125,329.77317554565667L368.55708333333337,329.77732193778746L372.2426541666667,329.7812255172411L375.928225,329.78495856071623L379.6137958333333,329.7885114198906L383.2993666666667,329.79192563672245L386.9849375,329.7951847535196L390.6705083333333,329.7982675467163L394.3560791666667,329.8012098186507L398.04165,329.8040206827698L401.7272208333333,329.8067074764614" style="fill: none;" fill="none"></path></g><g><path stroke="rgb(255, 112, 67)" stroke-width="2px" d="M47.912420833333336,-34.754820483505725L51.59799166666667,91.69056127023697L55.2835625,184.23959228259324L58.96913333333333,226.2977435850054L62.65470416666667,252.93389091198145L66.340275,286.9028626467735L70.02584583333334,297.0348921056166L73.71141666666666,284.6073911292925L77.3969875,292.47550570809096L81.08255833333332,309.90209346533567L84.76812916666668,313.6051268871762L88.45370000000001,316.6201567978114L92.13927083333334,318.8136204665974L95.82484166666667,320.3335028290544L99.5104125,321.4973214835376L103.19598333333334,322.46869046787543L106.88155416666667,323.2659985102136L110.567125,323.936347086912L114.25269583333335,324.4873826612281L117.93826666666666,324.9619035715871L121.62383750000001,325.3737154079955L125.30940833333334,325.7382146707112L128.99497916666667,326.0622095778659L132.68055,326.35364941425433L136.36612083333335,326.6157743703276L140.05169166666667,326.8515872068964L143.7372625,327.0672564864536L147.42283333333333,327.26256255366656L151.10840416666667,327.43961089596434L154.793975,327.60417574953334L158.47954583333333,327.75129698536404L162.16511666666665,327.88741109717915L165.8506875,328.0112982408288L169.53625833333336,328.12858639847417L173.22182916666668,328.23568614743465L176.90740000000002,328.335092364138L180.59297083333334,328.42887114726983L184.27854166666668,328.5155824487579L187.9641125,328.5965652664441L191.64968333333334,328.67168782907237L195.33525416666666,328.74138045043617L199.020825,328.80668962032695L202.70639583333335,328.86779000971865L206.3919666666667,328.92495393855893L210.0775375,328.9786336093721L213.76310833333335,329.0288963341194L217.44867916666666,329.076179393684L221.13425,329.12029829733586L224.81982083333332,329.16179236365L228.5053916666667,329.2005974624858L232.1909625,329.2368649497528L235.87653333333333,329.27064134586124L239.56210416666667,329.30235855551484L243.24767500000002,329.33213430607213L246.93324583333336,329.3597936522645L250.61881666666667,329.38604608520507L254.3043875,329.41048444158736L257.98995833333333,329.4335506104485L261.6755291666667,329.4551950267052L265.3611,329.475814265882L269.04667083333334,329.49511011459504L272.7322416666667,329.51337985362557L276.4178125,329.53081603797284L280.10338333333334,329.54721626545177L283.7889541666667,329.56296496032377L287.474525,329.57799788273013L291.16009583333334,329.592312673735L294.84566666666666,329.6058814101205L298.53123750000003,329.6188017134312L302.21680833333335,329.63094019407134L305.90237916666666,329.6423063014992L309.58795,329.65299905616325L313.27352083333335,329.6631908386751L316.95909166666667,329.67276566344856L320.6446625,329.68183950235505L324.3302333333333,329.69043604075665L328.01580416666667,329.6985968891853L331.701375,329.70635914602235L335.38694583333336,329.7136929268415L339.07251666666673,329.72065084139905L342.75808750000004,329.72732076005695L346.44365833333336,329.73368777488884L350.1292291666667,329.7400733183393L353.81480000000005,329.74680484362517L357.50037083333336,329.7524369059226L361.1859416666667,329.75759038538666L364.8715125,329.7624570758485L368.55708333333337,329.76709905709464L372.2426541666667,329.7714972244874L375.928225,329.7756738644851L379.6137958333333,329.77966117244813L383.2993666666667,329.78345997126115L386.9849375,329.7870892901308L390.6705083333333,329.7905385549898L394.3560791666667,329.7938220908878L398.04165,329.79695023188407L401.7272208333333,329.79995896546563" style="fill: none;" fill="none"></path></g></g></g></g></g></g><g transform="translate(51, 376)" clip-path="url(#clip_1)"><clipPath id="clip_1"><rect width="442" height="22"></rect></clipPath><g><g><line x1="0" y1="0" x2="0" y2="5" style="visibility: inherit;" fill="rgb(0, 0, 0)" stroke="rgb(204, 204, 204)" stroke-width="1px"></line><line x1="36.85570833333333" y1="0" x2="36.85570833333333" y2="5" style="visibility: inherit;" fill="rgb(0, 0, 0)" stroke="rgb(204, 204, 204)" stroke-width="1px"></line><line x1="73.71141666666666" y1="0" x2="73.71141666666666" y2="5" style="visibility: inherit;" fill="rgb(0, 0, 0)" stroke="rgb(204, 204, 204)" stroke-width="1px"></line><line x1="110.567125" y1="0" x2="110.567125" y2="5" style="visibility: inherit;" fill="rgb(0, 0, 0)" stroke="rgb(204, 204, 204)" stroke-width="1px"></line><line x1="147.42283333333333" y1="0" x2="147.42283333333333" y2="5" style="visibility: inherit;" fill="rgb(0, 0, 0)" stroke="rgb(204, 204, 204)" stroke-width="1px"></line><line x1="184.27854166666668" y1="0" x2="184.27854166666668" y2="5" style="visibility: inherit;" fill="rgb(0, 0, 0)" stroke="rgb(204, 204, 204)" stroke-width="1px"></line><line x1="221.13425" y1="0" x2="221.13425" y2="5" style="visibility: inherit;" fill="rgb(0, 0, 0)" stroke="rgb(204, 204, 204)" stroke-width="1px"></line><line x1="257.98995833333333" y1="0" x2="257.98995833333333" y2="5" style="visibility: inherit;" fill="rgb(0, 0, 0)" stroke="rgb(204, 204, 204)" stroke-width="1px"></line><line x1="294.84566666666666" y1="0" x2="294.84566666666666" y2="5" style="visibility: inherit;" fill="rgb(0, 0, 0)" stroke="rgb(204, 204, 204)" stroke-width="1px"></line><line x1="331.701375" y1="0" x2="331.701375" y2="5" style="visibility: inherit;" fill="rgb(0, 0, 0)" stroke="rgb(204, 204, 204)" stroke-width="1px"></line><line x1="368.55708333333337" y1="0" x2="368.55708333333337" y2="5" style="visibility: inherit;" fill="rgb(0, 0, 0)" stroke="rgb(204, 204, 204)" stroke-width="1px"></line><line x1="405.4127916666667" y1="0" x2="405.4127916666667" y2="5" style="visibility: inherit;" fill="rgb(0, 0, 0)" stroke="rgb(204, 204, 204)" stroke-width="1px"></line><line x1="442.2685" y1="0" x2="442.2685" y2="5" style="visibility: inherit;" fill="rgb(0, 0, 0)" stroke="rgb(204, 204, 204)" stroke-width="1px"></line></g><g transform="translate(0, 8)"><text x="0" y="0" dx="0em" dy="0.95em" style="text-anchor: middle; visibility: hidden; font-family: Roboto, sans-serif; font-size: 12px; font-weight: 200;" fill="rgb(255, 255, 255)" stroke="none" stroke-width="1px">-10</text><text x="36.85570833333333" y="0" dx="0em" dy="0.95em" style="text-anchor: middle; visibility: inherit; font-family: Roboto, sans-serif; font-size: 12px; font-weight: 200;" fill="rgb(255, 255, 255)" stroke="none" stroke-width="1px">0</text><text x="73.71141666666666" y="0" dx="0em" dy="0.95em" style="text-anchor: middle; visibility: inherit; font-family: Roboto, sans-serif; font-size: 12px; font-weight: 200;" fill="rgb(255, 255, 255)" stroke="none" stroke-width="1px">10</text><text x="110.567125" y="0" dx="0em" dy="0.95em" style="text-anchor: middle; visibility: inherit; font-family: Roboto, sans-serif; font-size: 12px; font-weight: 200;" fill="rgb(255, 255, 255)" stroke="none" stroke-width="1px">20</text><text x="147.42283333333333" y="0" dx="0em" dy="0.95em" style="text-anchor: middle; visibility: inherit; font-family: Roboto, sans-serif; font-size: 12px; font-weight: 200;" fill="rgb(255, 255, 255)" stroke="none" stroke-width="1px">30</text><text x="184.27854166666668" y="0" dx="0em" dy="0.95em" style="text-anchor: middle; visibility: inherit; font-family: Roboto, sans-serif; font-size: 12px; font-weight: 200;" fill="rgb(255, 255, 255)" stroke="none" stroke-width="1px">40</text><text x="221.13425" y="0" dx="0em" dy="0.95em" style="text-anchor: middle; visibility: inherit; font-family: Roboto, sans-serif; font-size: 12px; font-weight: 200;" fill="rgb(255, 255, 255)" stroke="none" stroke-width="1px">50</text><text x="257.98995833333333" y="0" dx="0em" dy="0.95em" style="text-anchor: middle; visibility: inherit; font-family: Roboto, sans-serif; font-size: 12px; font-weight: 200;" fill="rgb(255, 255, 255)" stroke="none" stroke-width="1px">60</text><text x="294.84566666666666" y="0" dx="0em" dy="0.95em" style="text-anchor: middle; visibility: inherit; font-family: Roboto, sans-serif; font-size: 12px; font-weight: 200;" fill="rgb(255, 255, 255)" stroke="none" stroke-width="1px">70</text><text x="331.701375" y="0" dx="0em" dy="0.95em" style="text-anchor: middle; visibility: inherit; font-family: Roboto, sans-serif; font-size: 12px; font-weight: 200;" fill="rgb(255, 255, 255)" stroke="none" stroke-width="1px">80</text><text x="368.55708333333337" y="0" dx="0em" dy="0.95em" style="text-anchor: middle; visibility: inherit; font-family: Roboto, sans-serif; font-size: 12px; font-weight: 200;" fill="rgb(255, 255, 255)" stroke="none" stroke-width="1px">90</text><text x="405.4127916666667" y="0" dx="0em" dy="0.95em" style="text-anchor: middle; visibility: inherit; font-family: Roboto, sans-serif; font-size: 12px; font-weight: 200;" fill="rgb(255, 255, 255)" stroke="none" stroke-width="1px">100</text><text x="442.2685" y="0" dx="0em" dy="0.95em" style="text-anchor: middle; visibility: hidden; font-family: Roboto, sans-serif; font-size: 12px; font-weight: 200;" fill="rgb(255, 255, 255)" stroke="none" stroke-width="1px">110</text></g><line x1="0" y1="0" x2="442.2685" y2="0" fill="rgb(0, 0, 0)" stroke="rgb(204, 204, 204)" stroke-width="1px"></line></g></g></g></g></svg>